<svg xmlns="http://www.w3.org/2000/svg" viewBox="0 0 500 500" fill="none">
<path d="M 457.14 400.58 C449.15,402.49 50.22,402.44 42.41,400.53 C25.20,396.32 10.82,380.97 8.05,363.86 C6.64,355.20 6.62,143.29 8.02,135.89 C11.39,118.13 26.33,102.77 43.80,99.11 C51.31,97.54 448.69,97.54 456.20,99.11 C474.24,102.89 489.42,119.01 492.05,137.19 C493.29,145.77 493.27,355.80 492.02,363.39 C489.11,381.17 474.89,396.34 457.14,400.58 ZM 155.00 145.00 L 155.00 269.00 L 243.00 269.00 L 243.00 245.00 L 184.00 245.00 L 184.00 216.00 L 235.00 216.00 L 235.00 195.00 L 184.00 195.00 L 184.00 169.03 L 241.50 168.50 L 242.06 145.00 ZM 253.26 256.25 L 252.73 269.00 L 348.07 269.00 L 347.78 258.25 L 347.50 247.50 L 315.75 247.24 L 284.00 246.97 L 284.00 243.94 C284.00,235.91 291.38,229.32 308.50,222.05 C334.62,210.97 343.04,204.04 346.59,190.72 C351.29,173.07 342.52,153.70 326.50,146.37 C323.50,145.00 317.17,143.16 312.45,142.29 C304.53,140.84 303.17,140.85 295.18,142.39 C284.36,144.49 277.55,147.73 270.56,154.12 C262.88,161.14 257.63,171.39 256.80,181.00 L 256.50 184.50 L 265.00 186.21 C269.67,187.16 276.09,188.23 279.25,188.59 L 285.00 189.26 L 285.00 186.25 C285.00,182.40 287.37,175.70 290.06,171.91 C292.67,168.24 298.85,165.00 303.21,165.00 C314.39,165.01 321.18,177.41 316.11,188.57 C313.37,194.60 308.44,198.05 291.91,205.51 C274.69,213.28 268.29,217.44 262.35,224.73 C256.26,232.22 253.91,240.36 253.26,256.25 ZM 134.00 289.93 L 134.00 361.00 L 148.97 361.00 L 149.50 311.50 L 153.50 321.36 C155.70,326.78 160.21,337.80 163.51,345.86 L 169.52 360.50 L 183.30 360.50 L 191.21 341.00 C195.56,330.27 199.96,319.48 200.99,317.00 L 202.87 312.50 L 203.50 360.50 L 211.25 360.79 L 219.00 361.08 L 219.00 290.00 L 197.21 290.00 L 190.45 306.75 C186.74,315.96 182.26,327.33 180.50,332.00 C178.74,336.67 176.91,340.27 176.42,340.00 C175.57,339.52 173.61,334.82 161.60,304.50 L 156.05 290.50 ZM 309.46 359.74 C309.79,360.61 312.44,361.00 317.97,361.00 L 326.00 361.00 L 326.00 337.21 L 338.25 336.82 C351.31,336.41 357.60,334.59 362.83,329.70 C372.21,320.95 371.61,305.01 361.57,296.20 C355.92,291.24 351.77,290.50 329.50,290.50 L 309.50 290.50 L 309.24 324.49 C309.09,343.19 309.19,359.05 309.46,359.74 ZM 254.00 361.63 C259.15,363.12 273.53,362.80 279.18,361.07 C284.50,359.44 291.96,354.13 295.53,349.42 C299.14,344.66 302.73,334.33 301.27,332.87 C300.74,332.34 297.20,331.65 293.40,331.33 L 286.49 330.75 L 285.16 334.44 C283.41,339.27 278.36,344.95 274.30,346.65 C269.17,348.79 259.15,348.39 255.02,345.87 C247.92,341.54 244.67,335.00 244.65,324.98 C244.63,318.54 245.05,316.67 247.57,312.02 C251.36,304.99 255.27,302.67 263.48,302.57 C268.81,302.51 270.17,302.90 273.45,305.39 C275.53,306.98 278.11,310.24 279.17,312.64 C280.23,315.04 281.54,317.00 282.09,317.00 C282.64,317.00 285.99,316.27 289.54,315.38 C293.86,314.29 296.00,313.26 296.00,312.27 C296.00,311.45 294.63,307.91 292.95,304.40 C287.61,293.21 278.05,288.00 262.86,288.00 C248.50,288.00 237.22,294.73 231.26,306.88 C228.69,312.11 228.50,313.37 228.50,325.00 C228.50,336.76 228.67,337.85 231.39,343.39 C236.10,352.97 242.83,358.40 254.00,361.63 ZM 214.00 491.00 C212.36,492.64 210.67,493.00 204.50,493.00 C193.87,493.00 193.00,491.98 193.00,479.50 L 193.00 470.00 L 189.15 470.00 C182.22,470.00 182.00,469.22 182.00,445.17 L 182.00 424.00 L 227.00 424.00 L 227.00 445.35 C227.00,469.38 226.81,470.00 219.67,470.00 L 216.00 470.00 L 216.00 479.50 C216.00,487.67 215.72,489.28 214.00,491.00 ZM 136.00 54.83 L 136.00 76.00 L 91.00 76.00 L 91.00 54.57 C91.00,30.41 91.12,30.00 98.07,30.00 L 102.00 30.00 L 102.00 20.50 C102.00,8.07 102.90,7.00 113.31,7.00 C123.93,7.00 124.42,7.55 124.84,19.92 L 125.19 30.00 L 128.94 30.00 C135.76,30.00 136.00,30.84 136.00,54.83 ZM 396.00 491.00 C394.36,492.64 392.67,493.00 386.69,493.00 C376.07,493.00 375.58,492.45 375.16,480.08 L 374.81 470.00 L 371.63 470.00 C369.88,470.00 367.44,469.30 366.22,468.44 C364.04,466.92 364.00,466.47 364.00,445.44 L 364.00 424.00 L 409.00 424.00 L 409.00 445.43 C409.00,469.59 408.88,470.00 401.93,470.00 L 398.00 470.00 L 398.00 479.50 C398.00,487.67 397.72,489.28 396.00,491.00 ZM 305.59 490.55 C304.45,492.11 302.66,492.55 296.19,492.84 C289.13,493.16 287.96,492.96 286.10,491.10 C284.26,489.26 284.00,487.82 284.00,479.50 L 284.00 470.00 L 280.15 470.00 C273.22,470.00 273.00,469.22 273.00,445.17 L 273.00 424.00 L 318.00 424.00 L 318.00 445.35 C318.00,469.38 317.81,470.00 310.67,470.00 L 307.00 470.00 L 307.00 479.31 C307.00,485.74 306.56,489.21 305.59,490.55 ZM 122.56 491.58 C121.31,492.49 118.06,493.00 113.50,493.00 C103.10,493.00 102.58,492.41 102.16,480.08 L 101.81 470.00 L 97.98 470.00 C91.13,470.00 91.00,469.53 91.00,445.43 L 91.00 424.00 L 136.00 424.00 L 136.00 445.35 C136.00,469.33 135.80,470.00 128.76,470.00 L 125.19 470.00 L 124.84 480.08 C124.55,488.67 124.21,490.37 122.56,491.58 ZM 227.00 54.83 L 227.00 76.00 L 205.17 76.00 C193.16,76.00 183.03,75.70 182.67,75.33 C182.30,74.97 182.00,65.36 182.00,53.99 C182.00,30.70 182.21,30.00 189.33,30.00 L 193.00 30.00 L 193.00 20.50 C193.00,8.02 193.87,7.00 204.50,7.00 C215.13,7.00 216.00,8.02 216.00,20.50 L 216.00 30.00 L 219.85 30.00 C226.78,30.00 227.00,30.78 227.00,54.83 ZM 406.75 75.37 C405.51,75.70 395.39,75.98 384.25,75.99 L 364.00 76.00 L 364.00 54.56 C364.00,33.53 364.04,33.08 366.22,31.56 C367.44,30.70 369.92,30.00 371.72,30.00 L 375.00 30.00 L 375.00 20.50 C375.00,8.02 375.87,7.00 386.50,7.00 C397.13,7.00 398.00,8.02 398.00,20.50 L 398.00 30.00 L 401.93 30.00 C408.86,30.00 409.00,30.48 409.00,53.95 C409.00,74.69 408.99,74.77 406.75,75.37 ZM 313.36 75.36 C310.81,75.71 300.68,76.00 290.86,76.00 L 273.00 76.00 L 273.00 54.65 C273.00,30.62 273.19,30.00 280.33,30.00 L 284.00 30.00 L 284.00 20.50 C284.00,8.02 284.87,7.00 295.50,7.00 C306.13,7.00 307.00,8.02 307.00,20.50 L 307.00 30.00 L 310.85 30.00 C317.75,30.00 318.00,30.85 318.00,54.19 L 318.00 74.73 ZM 347.77 322.00 C345.13,323.61 342.73,323.99 335.25,324.00 L 326.00 324.00 L 326.00 303.00 L 335.92 303.00 C345.11,303.00 346.07,303.19 348.89,305.56 C354.47,310.26 353.93,318.24 347.77,322.00 Z" fill="currentColor"/>
</svg>